<svg id="darkbg" xmlns="http://www.w3.org/2000/svg" viewBox="0 0 500 100"><defs><style>.cls-1{fill:#fff;}.cls-2{fill:none;stroke:#fff;stroke-miterlimit:10;stroke-width:0.78px;}.cls-3{fill:#ccc;}.cls-4{fill:#6d6d6f;}.cls-5{fill:#c2c2c4;}.cls-6{fill:#8f8f8f;}.cls-7{fill:#d9d9db;}</style></defs><title>Artboard 1</title><path class="cls-1" d="M116.72,50.46a20.59,20.59,0,0,0,9.05,2.25c3.75,0,5.73-1.56,5.73-3.92s-1.71-3.54-6.05-5c-6-2.15-10-5.47-10-10.73,0-6.17,5.2-10.84,13.66-10.84A21.09,21.09,0,0,1,138.35,24l-1.82,6.55a16.86,16.86,0,0,0-7.5-1.72c-3.53,0-5.25,1.66-5.25,3.49,0,2.31,2,3.33,6.69,5.1,6.37,2.36,9.32,5.69,9.32,10.78,0,6.06-4.61,11.21-14.51,11.21a23.51,23.51,0,0,1-10.23-2.25Z"/><path class="cls-1" d="M179.76,40.42c0,11.91-7.12,19-17.73,19s-17-8.1-17-18.46c0-10.84,7-18.94,17.57-18.94C173.7,22.08,179.76,30.39,179.76,40.42Zm-26.08.43C153.67,48,157,53,162.46,53s8.68-5.26,8.68-12.29c0-6.54-3.05-12.12-8.68-12.12S153.67,33.83,153.67,40.85Z"/><path class="cls-1" d="M186.51,22.72h8.14V52H209v6.87H186.51Z"/><path class="cls-1" d="M220.2,58.88,208.63,22.72h8.94L222,38c1.23,4.35,2.36,8.42,3.21,12.93h.16c.91-4.35,2-8.64,3.27-12.77l4.61-15.45h8.68L229.73,58.88Z"/><path class="cls-1" d="M268.56,43.59H255.28v8.58h14.83v6.71h-23V22.72h22.23v6.71H255.28v7.51h13.28Z"/><path class="cls-1" d="M277,23.2a71.06,71.06,0,0,1,10.87-.75c5.36,0,9.1.8,11.68,2.84a9.18,9.18,0,0,1,3.37,7.62,9.58,9.58,0,0,1-6.37,8.85v.16c2.52,1,3.91,3.38,4.82,6.71,1.12,4.13,2.2,8.85,2.89,10.25h-8.35a48.44,48.44,0,0,1-2.46-8.42c-1-4.56-2.57-5.74-5.95-5.79h-2.41V58.88H277Zm8.09,15.56h3.21c4.07,0,6.48-2,6.48-5.2s-2.25-5-6-5a16.2,16.2,0,0,0-3.7.27Z"/><path class="cls-1" d="M340.66,45c-.16-4.35-.32-9.6-.32-14.86h-.11c-1.18,4.61-2.68,9.76-4.07,14l-4.39,14.11h-6.37l-3.86-13.95c-1.18-4.29-2.36-9.44-3.27-14.16h-.11c-.16,4.88-.37,10.46-.59,15l-.7,13.73h-7.55l2.3-36.16H322.5L326,34.79c1.18,4.18,2.25,8.69,3.05,12.93h.21c1-4.18,2.2-9,3.43-13l3.8-12h10.71l1.93,36.16h-7.93Z"/><path class="cls-1" d="M365,22.72V58.88h-8.14V22.72Z"/><path class="cls-1" d="M373.38,58.88V22.72h9.53L390.41,36a114.06,114.06,0,0,1,5.89,12.39h.11a149.61,149.61,0,0,1-.64-15.13V22.72h7.5V58.88H394.7L387,44.93a122.59,122.59,0,0,1-6.27-12.77h-.21c.27,4.83.38,9.93.38,15.83V58.88Z"/><path class="cls-1" d="M411.68,23.26a71.9,71.9,0,0,1,11-.8c6.91,0,11.41,1.29,14.83,3.86,3.75,2.79,6.11,7.24,6.11,13.63,0,6.92-2.52,11.7-5.95,14.65-3.8,3.17-9.64,4.67-16.71,4.67a69.82,69.82,0,0,1-9.27-.54Zm8.14,29.45a15.27,15.27,0,0,0,2.84.16c7.44.05,12.32-4,12.32-12.66,0-7.51-4.39-11.48-11.46-11.48a17.32,17.32,0,0,0-3.7.32Z"/><path class="cls-1" d="M450.57,50.46a20.6,20.6,0,0,0,9.05,2.25c3.75,0,5.73-1.56,5.73-3.92s-1.71-3.54-6.05-5c-6-2.15-10-5.47-10-10.73,0-6.17,5.19-10.84,13.66-10.84A21.09,21.09,0,0,1,472.2,24l-1.82,6.55a16.86,16.86,0,0,0-7.5-1.72c-3.54,0-5.25,1.66-5.25,3.49,0,2.31,2,3.33,6.7,5.1,6.37,2.36,9.32,5.69,9.32,10.78,0,6.06-4.61,11.21-14.51,11.21a23.51,23.51,0,0,1-10.23-2.25Z"/><path class="cls-1" d="M115.57,79.72a6.54,6.54,0,0,0,3,.77c1.23,0,1.87-.53,1.87-1.33s-.56-1.21-2-1.72c-2-.73-3.26-1.86-3.26-3.65,0-2.1,1.7-3.69,4.47-3.69a6.67,6.67,0,0,1,3,.62l-.6,2.23a5.34,5.34,0,0,0-2.45-.58c-1.16,0-1.72.57-1.72,1.19,0,.79.65,1.13,2.19,1.74,2.08.8,3,1.94,3,3.67,0,2.06-1.51,3.82-4.75,3.82A7.45,7.45,0,0,1,115,82Z"/><path class="cls-1" d="M139.92,76.3c0,4.05-2.33,6.48-5.8,6.48s-5.55-2.76-5.55-6.28c0-3.69,2.28-6.45,5.75-6.45C137.94,70.05,139.92,72.89,139.92,76.3Zm-8.53.15c0,2.43,1.09,4.13,2.87,4.13s2.84-1.79,2.84-4.18c0-2.23-1-4.13-2.84-4.13S131.39,74.05,131.39,76.45Z"/><path class="cls-1" d="M145.85,70.27h2.66v10h4.69v2.34h-7.36Z"/><path class="cls-1" d="M161.07,70.27v7.07c0,2.14.79,3.21,2.14,3.21s2.17-1,2.17-3.21V70.27H168v6.9c0,3.8-1.84,5.61-4.92,5.61S158.4,81,158.4,77.14V70.27Z"/><path class="cls-1" d="M176.81,72.61h-3.19V70.27h9.07v2.34h-3.22v10h-2.66Z"/><path class="cls-1" d="M191,70.27V82.58h-2.66V70.27Z"/><path class="cls-1" d="M208.24,76.3c0,4.05-2.33,6.48-5.8,6.48s-5.55-2.76-5.55-6.28c0-3.69,2.28-6.45,5.75-6.45C206.26,70.05,208.24,72.89,208.24,76.3Zm-8.53.15c0,2.43,1.09,4.13,2.87,4.13s2.84-1.79,2.84-4.18c0-2.23-1-4.13-2.84-4.13S199.71,74.05,199.71,76.45Z"/><path class="cls-1" d="M214.16,82.58V70.27h3.12l2.45,4.51A39.61,39.61,0,0,1,221.65,79h0c-.16-1.62-.21-3.29-.21-5.15V70.27h2.45V82.58h-2.8l-2.52-4.75a42.49,42.49,0,0,1-2-4.35h-.07c.09,1.64.12,3.38.12,5.39v3.71Z"/><path class="cls-1" d="M230.49,79.72a6.54,6.54,0,0,0,3,.77c1.23,0,1.87-.53,1.87-1.33s-.56-1.21-2-1.72c-2-.73-3.26-1.86-3.26-3.65,0-2.1,1.7-3.69,4.47-3.69a6.67,6.67,0,0,1,3,.62l-.6,2.23a5.34,5.34,0,0,0-2.45-.58c-1.16,0-1.72.57-1.72,1.19,0,.79.65,1.13,2.19,1.74,2.08.8,3,1.94,3,3.67,0,2.06-1.51,3.82-4.75,3.82a7.45,7.45,0,0,1-3.35-.77Z"/><path class="cls-1" d="M254.48,79.42l-.84,3.16h-2.75l3.59-12.31H258l3.68,12.31h-2.89l-.91-3.16Zm3-2.08-.74-2.61c-.21-.73-.42-1.64-.59-2.37h0c-.18.73-.35,1.66-.54,2.38l-.7,2.61Z"/><path class="cls-1" d="M267.39,82.58V70.27h3.12L273,74.79A39.51,39.51,0,0,1,274.88,79h0c-.16-1.62-.21-3.29-.21-5.15V70.27h2.45V82.58h-2.8l-2.52-4.75a42.39,42.39,0,0,1-2-4.35h-.07c.09,1.64.12,3.38.12,5.39v3.71Z"/><path class="cls-1" d="M283.64,70.46a22.65,22.65,0,0,1,3.59-.27,7.46,7.46,0,0,1,4.85,1.31,5.54,5.54,0,0,1,2,4.64,6.43,6.43,0,0,1-1.94,5,8.28,8.28,0,0,1-5.47,1.59,22.06,22.06,0,0,1-3-.18Zm2.66,10a4.82,4.82,0,0,0,.93.05c2.43,0,4-1.37,4-4.31,0-2.56-1.44-3.91-3.75-3.91a5.47,5.47,0,0,0-1.21.11Z"/><path class="cls-1" d="M309.31,72.61h-3.19V70.27h9.07v2.34H312v10h-2.66Z"/><path class="cls-1" d="M327.8,77.38h-4.34V80.3h4.85v2.28h-7.51V70.27h7.27v2.28h-4.61v2.56h4.34Z"/><path class="cls-1" d="M342.95,82.25a7.55,7.55,0,0,1-3,.53c-4.08,0-6.18-2.67-6.18-6.17a6.13,6.13,0,0,1,6.45-6.52,6.45,6.45,0,0,1,2.91.55l-.56,2.19a5.41,5.41,0,0,0-2.24-.46c-2.1,0-3.75,1.33-3.75,4.07,0,2.47,1.4,4,3.77,4a6.13,6.13,0,0,0,2.24-.4Z"/><path class="cls-1" d="M351.56,70.27V75H356V70.27h2.66V82.58H356V77.43h-4.4v5.15H348.9V70.27Z"/><path class="cls-1" d="M365.11,82.58V70.27h3.12l2.45,4.51A39.7,39.7,0,0,1,372.61,79h0c-.16-1.62-.21-3.29-.21-5.15V70.27h2.45V82.58h-2.8l-2.52-4.75a42.59,42.59,0,0,1-2-4.35h-.07c.09,1.64.12,3.38.12,5.39v3.71Z"/><path class="cls-1" d="M392.17,76.3c0,4.05-2.33,6.48-5.8,6.48s-5.55-2.76-5.55-6.28c0-3.69,2.28-6.45,5.75-6.45C390.19,70.05,392.17,72.89,392.17,76.3Zm-8.53.15c0,2.43,1.09,4.13,2.87,4.13s2.84-1.79,2.84-4.18c0-2.23-1-4.13-2.84-4.13S383.64,74.05,383.64,76.45Z"/><path class="cls-1" d="M398.1,70.27h2.66v10h4.7v2.34H398.1Z"/><path class="cls-1" d="M421.34,76.3c0,4.05-2.33,6.48-5.8,6.48S410,80,410,76.5c0-3.69,2.28-6.45,5.75-6.45C419.36,70.05,421.34,72.89,421.34,76.3Zm-8.53.15c0,2.43,1.09,4.13,2.87,4.13s2.84-1.79,2.84-4.18c0-2.23-1-4.13-2.84-4.13S412.81,74.05,412.81,76.45Z"/><path class="cls-1" d="M437.12,82a12.74,12.74,0,0,1-3.94.69,6.48,6.48,0,0,1-4.8-1.64,6.32,6.32,0,0,1-1.66-4.49c0-4.09,2.87-6.43,6.74-6.43a8.21,8.21,0,0,1,3.28.58L436.17,73a6,6,0,0,0-2.73-.53,3.65,3.65,0,0,0-3.92,4c0,2.56,1.54,4,3.73,4a3.93,3.93,0,0,0,1.3-.16V77.71h-1.82V75.53h4.4Z"/><path class="cls-1" d="M446,70.27V82.58h-2.66V70.27Z"/><path class="cls-1" d="M459.54,77.38H455.2V80.3h4.85v2.28h-7.51V70.27h7.27v2.28H455.2v2.56h4.34Z"/><path class="cls-1" d="M466.13,79.72a6.53,6.53,0,0,0,3,.77c1.23,0,1.87-.53,1.87-1.33s-.56-1.21-2-1.72c-2-.73-3.26-1.86-3.26-3.65,0-2.1,1.7-3.69,4.47-3.69a6.67,6.67,0,0,1,3,.62l-.6,2.23a5.34,5.34,0,0,0-2.45-.58c-1.16,0-1.72.57-1.72,1.19,0,.79.65,1.13,2.19,1.74,2.08.8,3,1.94,3,3.67,0,2.06-1.51,3.82-4.75,3.82a7.45,7.45,0,0,1-3.35-.77Z"/><path class="cls-2" d="M48.46,10.34s12.27,1.55,16.78,7.3c0,0,3.5,2.87,6,12a70.62,70.62,0,0,1,2,10.1L72,41.8l5.75,9.79s.93,2.8-1.86,3.42c0,0-2,.47-2.17,2,0,0,1.55,1.86.62,3.11l-1.09,1.09,1.09,2s.16.47-.47.78l-.93.47s-.31.16-.31.78A8.68,8.68,0,0,0,72.92,69a2,2,0,0,1-.16,1.86A6.91,6.91,0,0,1,70,73.33l-1.24.31-1.24.16s-6.52-.16-6.68,0-4.82.31-7.3,3.57l-2.33,12-.16.78s-.47.47-.78.31"/><path class="cls-3" d="M73.29,47.13c-.45.17-.9.33-1.35.52-1.23.52-2.48,1-3.73,1.48l-1.86.75-3,1.15-1.8.68-.22.1-2.57.91-2.63,1-.15.06L51.8,55.2c-2.07.74-4.16,1.4-6.23,2.13-3.46,1.23-7,2.33-10.43,3.51a1.94,1.94,0,0,1-.94.18.77.77,0,0,1,.47-.29l1.75-.58c1.5-.51,3-1,4.48-1.56.91-.33,1.83-.61,2.73-1s1.62-.57,2.41-.89c.65-.26,1.31-.46,2-.71,1.38-.53,2.77-1,4.14-1.54.62-.25,1.26-.46,1.88-.69l1.88-.71L58.7,52l2-.79,2.76-1.12,2.38-1c.87-.35,1.75-.68,2.6-1.07s1.89-.75,2.81-1.21c.53-.26,1.08-.46,1.63-.69l.22-.1c.88-.41,1.74-.83,2.63-1.21s2-1,3.06-1.44a30.56,30.56,0,0,0,2.75-1.34c.91-.51,1.86-.95,2.76-1.5.52-.32,1.08-.59,1.61-.9,1.29-.76,2.58-1.54,3.8-2.41a19.63,19.63,0,0,0,1.9-1.48c.33-.31.7-.58,1-.9a10.26,10.26,0,0,0,1.31-1.62,4.9,4.9,0,0,0,.78-1.83.94.94,0,0,0,0-.32,3.7,3.7,0,0,0-.3-1.16,10.89,10.89,0,0,0-.93-1.31.71.71,0,0,0-.19-.15L92.62,28a2.54,2.54,0,0,0-.72-.35c-.26-.08-.5-.19-.76-.26a7.5,7.5,0,0,0-2-.37.48.48,0,0,1-.36-.14,5.23,5.23,0,0,0,1.35,0c.57,0,1.13,0,1.69.08a11.77,11.77,0,0,1,3,.59,6.45,6.45,0,0,1,1.82,1,2.37,2.37,0,0,1,.45.45,6.28,6.28,0,0,1,.79,1.39,1.15,1.15,0,0,1,.09.31,3.11,3.11,0,0,1-.2,1.58,6.05,6.05,0,0,1-1.25,1.95c-.48.47-.94,1-1.43,1.41a10.09,10.09,0,0,1-.87.71,33.41,33.41,0,0,1-3.12,2.11l-.21.12c-.77.54-1.6,1-2.42,1.43-2,1.17-4.18,2.17-6.3,3.21a21.69,21.69,0,0,1-2.13.94,4.37,4.37,0,0,0-.44.21c-.82.4-1.65.76-2.5,1.1-.54.22-1.08.48-1.62.71l-.81.34"/><path class="cls-3" d="M43.22,30.29a1.13,1.13,0,0,1,1-.7l1.76.07a1,1,0,0,0,.94-.73l.15-.73a.82.82,0,0,0-.59-1l-1.72-.44a1,1,0,0,1-.73-1l0-1.39a1.12,1.12,0,0,1,.66-1.06l1.64-.66a1,1,0,0,0,.56-1l-.16-.73a.82.82,0,0,0-.93-.63l-1.79.3A1,1,0,0,1,42.95,20l-.59-1.23a1.12,1.12,0,0,1,.17-1.24l1.27-1.31a1,1,0,0,0,.08-1.18l-.44-.61a.82.82,0,0,0-1.1-.2l-1.55,1a1,1,0,0,1-1.21-.1l-1-.86a1.12,1.12,0,0,1-.35-1.2l.65-1.75a1,1,0,0,0-.4-1.12L37.8,9.9a1,1,0,0,0-1.17.21l-1.28,1.55a1.22,1.22,0,0,1-1.23.35s-.58-.19-1.27-.34l-.11,0c-.12,0-.24-.39-.26-.81l-.12-1.89a1,1,0,0,0-.82-.86L30.79,8a.82.82,0,0,0-.89.69l-.28,1.88a1,1,0,0,1-.89.82l-1.4.17A1.14,1.14,0,0,1,26.21,11l-.87-1.64a1,1,0,0,0-1.1-.44l-.71.24a.82.82,0,0,0-.52,1L23.51,12A1,1,0,0,1,23,13.07l-1.16.7a1.14,1.14,0,0,1-1.26,0l-1.43-1.12a1,1,0,0,0-1.19,0l-.55.5a.82.82,0,0,0-.08,1.12l1.15,1.38a1,1,0,0,1,0,1.21L17.76,18a1.14,1.14,0,0,1-1.16.47L14.88,18a1,1,0,0,0-1.07.52l-.3.69a.82.82,0,0,0,.39,1.05l1.6.79a.92.92,0,0,1,.51,1l-.07.34c-.14.63-.19,1.12-.19,1.12a1.1,1.1,0,0,1-.85.91l-1.74.3a1,1,0,0,0-.76.91v.75a.82.82,0,0,0,.78.81l1.79.07a1,1,0,0,1,.92.79l.33,1.34a1.12,1.12,0,0,1-.42,1.18l-1.49,1A1,1,0,0,0,14,32.76l.31.68a.82.82,0,0,0,1,.42l1.71-.68a1,1,0,0,1,1.17.35L19,34.59a1.12,1.12,0,0,1,.09,1.25l-1,1.56a1,1,0,0,0,.17,1.17l.56.5A.82.82,0,0,0,20,39l1.32-1.35a1,1,0,0,1,1.21-.15l1.16.62a1.13,1.13,0,0,1,.59,1.1L24,41.12a1,1,0,0,0,.63,1l.71.23a.82.82,0,0,0,1-.49L27,40.07a1,1,0,0,1,1-.63l1.31.11a1.14,1.14,0,0,1,1,.77l.51,1.81a1,1,0,0,0,1,.66l.74-.08a.82.82,0,0,0,.72-.86L33.21,40a1,1,0,0,1,.7-1l1.26-.43a1.14,1.14,0,0,1,1.22.31l1.18,1.41a1,1,0,0,0,1.17.21l.65-.38A.82.82,0,0,0,39.69,39l-.85-1.62a1,1,0,0,1,.24-1.18l1-.93a1.14,1.14,0,0,1,1.24-.21l1.6.79a1,1,0,0,0,1.15-.29l.44-.61a.82.82,0,0,0-.15-1.11L43,32.75a1,1,0,0,1-.27-1.18Zm-14-2.24a2.8,2.8,0,1,1,3.33-2.14A2.8,2.8,0,0,1,29.2,28.06Z"/><path class="cls-4" d="M30.9,20.23a5.21,5.21,0,1,0,4,6.2A5.21,5.21,0,0,0,30.9,20.23Zm-1.7,7.83a2.8,2.8,0,1,1,3.33-2.14A2.8,2.8,0,0,1,29.2,28.06Z"/><path class="cls-3" d="M32.09,14.76a10.81,10.81,0,1,0,8.27,12.86A10.81,10.81,0,0,0,32.09,14.76Zm-3.4,15.65a5.21,5.21,0,1,1,6.2-4A5.21,5.21,0,0,1,28.68,30.42Z"/><path class="cls-4" d="M32.52,12.77A12.84,12.84,0,1,0,42.34,28,12.84,12.84,0,0,0,32.52,12.77Zm-5,23.11a10.81,10.81,0,1,1,12.86-8.27A10.81,10.81,0,0,1,27.5,35.88Z"/><path d="M50.5,15.91l2-.35V14.15l-2-.07A8.5,8.5,0,0,0,50,12.33l1.68-1.14-.58-1.28-1.91.77a8.66,8.66,0,0,0-1.1-1.4l1.09-1.75L48.16,6.6,46.71,8.1a8.7,8.7,0,0,0-1.55-.83l.29-2.07-1.34-.43-1,1.94a8.84,8.84,0,0,0-1.27-.09h-.2l-.58-2-1.4.16.14,2.1a8.69,8.69,0,0,0-1.71.6L36.74,5.86l-1.21.72,1,1.84a8.71,8.71,0,0,0-1.29,1.22l-1.85-.89-.81,1.15,1.62,1.26a8.53,8.53,0,0,0-.69,1.66l-2-.06-.28,1.38,2,.49c0,.21,0,.42,0,.63a8.61,8.61,0,0,0,.08,1.17l-1.88.77.31,1.37,2-.36a8.55,8.55,0,0,0,.79,1.61L33,21.26l.84,1.13,1.72-1.16a8.72,8.72,0,0,0,1.36,1.13l-.71,2,1.22.69,1.11-1.78a8.69,8.69,0,0,0,1.69.48l.15,2.1,1.4.13.29-2.09a8.78,8.78,0,0,0,1.74-.23l1,1.85L46.17,25l-.58-2a8.71,8.71,0,0,0,1.51-.92l1.64,1.27,1-.95-1.33-1.59a8.64,8.64,0,0,0,1-1.46l2,.49L52,18.58l-1.83-.9A8.52,8.52,0,0,0,50.5,15.91Zm-8.72,1a1.71,1.71,0,1,1,1.71-1.71A1.71,1.71,0,0,1,41.78,16.87Z"/><path class="cls-4" d="M41.78,12A3.18,3.18,0,1,0,45,15.16,3.18,3.18,0,0,0,41.78,12Zm0,4.89a1.71,1.71,0,1,1,1.71-1.71A1.71,1.71,0,0,1,41.78,16.87Z"/><path class="cls-5" d="M41.78,8.56a6.6,6.6,0,1,0,6.6,6.6A6.6,6.6,0,0,0,41.78,8.56Zm0,9.79A3.18,3.18,0,1,1,45,15.16,3.18,3.18,0,0,1,41.78,18.34Z"/><path class="cls-4" d="M41.78,7.31a7.84,7.84,0,1,0,7.84,7.84A7.84,7.84,0,0,0,41.78,7.31Zm0,14.45a6.6,6.6,0,1,1,6.6-6.6A6.6,6.6,0,0,1,41.78,21.76Z"/><path class="cls-6" d="M49.11,35.48l2-.35V33.73l-2-.07a8.5,8.5,0,0,0-.43-1.74l1.68-1.14-.58-1.28-1.91.77a8.66,8.66,0,0,0-1.1-1.4l1.09-1.75-1.05-.93-1.45,1.5a8.7,8.7,0,0,0-1.55-.83L44,24.77l-1.34-.43-1,1.94a8.84,8.84,0,0,0-1.27-.09h-.2l-.58-2-1.4.16.14,2.1a8.69,8.69,0,0,0-1.71.6l-1.35-1.59-1.21.72,1,1.84a8.71,8.71,0,0,0-1.29,1.22L32,28.31l-.81,1.15,1.62,1.26a8.53,8.53,0,0,0-.69,1.66l-2-.06-.28,1.38,2,.49c0,.21,0,.42,0,.63A8.61,8.61,0,0,0,31.82,36l-1.88.77.31,1.37,2-.36A8.55,8.55,0,0,0,33,39.36l-1.42,1.48L32.47,42l1.72-1.16a8.72,8.72,0,0,0,1.36,1.13l-.71,2,1.22.69,1.11-1.78a8.69,8.69,0,0,0,1.69.48l.15,2.1,1.4.13.29-2.09a8.78,8.78,0,0,0,1.74-.23l1,1.85,1.33-.45-.58-2a8.71,8.71,0,0,0,1.51-.92l1.64,1.27,1-.95L47,40.41a8.64,8.64,0,0,0,1-1.46l2,.49.56-1.29-1.83-.9A8.52,8.52,0,0,0,49.11,35.48Zm-8.72,1a1.71,1.71,0,1,1,1.71-1.71A1.71,1.71,0,0,1,40.38,36.44Z"/><path class="cls-6" d="M40.38,31.55a3.18,3.18,0,1,0,3.18,3.18A3.18,3.18,0,0,0,40.38,31.55Zm0,4.89a1.71,1.71,0,1,1,1.71-1.71A1.71,1.71,0,0,1,40.38,36.44Z"/><path class="cls-7" d="M40.38,28.13a6.6,6.6,0,1,0,6.6,6.6A6.6,6.6,0,0,0,40.38,28.13Zm0,9.79a3.18,3.18,0,1,1,3.18-3.18A3.18,3.18,0,0,1,40.38,37.92Z"/><path class="cls-6" d="M40.38,26.89a7.84,7.84,0,1,0,7.84,7.84A7.84,7.84,0,0,0,40.38,26.89Zm0,14.45a6.6,6.6,0,1,1,6.6-6.6A6.6,6.6,0,0,1,40.38,41.33Z"/><path class="cls-1" d="M72.85,39.51c.18-.11.34-.23.51-.35l.55-.38a44.42,44.42,0,0,0,8.14-6,6.38,6.38,0,0,0,1.18-1.52,1.32,1.32,0,0,0-.71-2,7.12,7.12,0,0,0-2.75-.54c-1.07,0-2.15,0-3.22,0-.28,0-.67.11-.76-.35l2.36-.44c.5-.09,1-.15,1.5-.23l1.11-.17c.61-.09,1.21-.2,1.82-.27S84,27.1,84.74,27c.13,0,.27,0,.4,0a18.62,18.62,0,0,1,3.2-.14h.48a11.15,11.15,0,0,1,3.13.57,5.15,5.15,0,0,1,1.86,1.24c1.4,1.6,1.48,2.87.33,4.67a15.88,15.88,0,0,1-4.76,4.39,87.47,87.47,0,0,1-12.63,6.9c-5.7,2.63-11.5,5-17.35,7.32C52.65,54.6,45.86,57.1,39,59.41L34.2,61c-.55.19-1.1.39-1.66.57l-2.36.73c-.17.09-.32.13-.3-.15l1.57-.82L37,58.48l3.42-1.78L45.58,54,51,51.24l8.67-4.41c2.46-1.25,4.93-2.49,7.38-3.75.88-.45,1.72-1,2.58-1.48.55-.33,1.09-.68,1.64-1"/><path class="cls-3" d="M69.29,30c-.14,0-.32,0-.27-.23l2-.44,2.17-.45c.78-.16,1.55-.33,2.31-.55a1.2,1.2,0,0,1,.32,0c.07,0,.13.11.2.12a3.57,3.57,0,0,0,.48,0h2.81a5.54,5.54,0,0,1,1.75.15,4.66,4.66,0,0,1,1.48.35,1.89,1.89,0,0,1,1.11,1,1.79,1.79,0,0,1-.08,1.18,5.28,5.28,0,0,1-1,1.38,15.9,15.9,0,0,1-1.37,1.36c-.58.51-1.18,1-1.81,1.46-1.14.84-2.29,1.67-3.49,2.43-.52.33-1,.67-1.55,1a4.13,4.13,0,0,1-.51.23l-.06-.11c.06-.37.38-.5.64-.68a46.43,46.43,0,0,0,4-3.12,9.23,9.23,0,0,0,1.87-2.19,1.48,1.48,0,0,0-.9-2.45A8.69,8.69,0,0,0,76.79,30c-1.42,0-2.84,0-4.26,0"/></svg>